<svg width="221" height="195" viewBox="0 0 221 195" fill="none" xmlns="http://www.w3.org/2000/svg">
<path d="M221 111.269L220.998 159.613C220.612 178.692 205.504 194.188 186.469 194.188C175.043 194.188 165.75 184.881 165.75 173.443V118.262C165.75 106.823 175.03 97.5 186.469 97.5C191.143 97.5 195.494 98.6754 199.547 100.382C194.109 55.674 156.297 21.5874 110.5 21.5874C64.7029 21.5874 26.8869 55.674 21.4525 100.392C25.5056 98.6654 29.8566 97.5 34.5312 97.5C45.9697 97.5 55.25 106.823 55.25 118.262V173.469C55.25 184.864 45.9697 194.188 34.5312 194.188C15.4916 194.188 0.388477 178.7 0.388477 159.63L0 111.312C0 50.3648 49.5523 0.8125 110.5 0.8125C171.318 0.8125 220.827 50.2353 220.612 111.01C220.612 111.097 220.612 111.183 221 111.269V111.269Z" fill="#C95555"/>
</svg>
