<svg width="256" height="183" viewBox="0 0 256 183" fill="none" xmlns="http://www.w3.org/2000/svg">
<path d="M253.3 90.3C251.973 87.998 250.202 85.9819 248.091 84.3684C245.98 82.7549 243.57 81.5761 241 80.9C233.28 79.0306 225.335 78.2563 217.4 78.6C218.966 65.928 217.772 53.0671 213.9 40.9C212.396 36.1999 209.2 32.226 204.931 29.7498C200.663 27.2737 195.626 26.4719 190.8 27.5C182.485 29.3166 174.494 32.3849 167.1 36.6C160.463 24.1154 151.221 13.2025 140 4.60003C136.551 1.97239 132.335 0.549316 128 0.549316C123.664 0.549316 119.448 1.97239 116 4.60003C104.779 13.2025 95.5369 24.1154 88.8999 36.6C81.5058 32.3849 73.5148 29.3166 65.1999 27.5C60.3733 26.4719 55.337 27.2737 51.0684 29.7498C46.7998 32.226 43.6034 36.1999 42.0999 40.9C38.2272 53.0671 37.0333 65.928 38.5999 78.6C30.6643 78.2563 22.7198 79.0306 14.9999 80.9C12.4334 81.5733 10.0256 82.748 7.91541 84.3564C5.80521 85.9648 4.03433 87.9751 2.70493 90.2714C1.37553 92.5676 0.513916 95.1043 0.169781 97.7352C-0.174353 100.366 0.005804 103.039 0.699862 105.6C4.39986 118.9 15.6999 144 49.6999 163.6C83.6999 183.2 112.3 183 127.9 183H128.1C143.7 183 172.8 183 206.3 163.6C239.8 144.2 251.6 118.9 255.3 105.6C255.996 103.044 256.178 100.376 255.835 97.7494C255.491 95.1229 254.63 92.5908 253.3 90.3V90.3ZM192.2 51.9C194.2 60.2 195.5 73 190.8 88.9L190.5 89.8C188.242 97.0635 185.155 104.043 181.3 110.6C180.118 112.771 178.816 114.874 177.4 116.9C179.142 108.377 180.013 99.6992 180 91C180.067 80.2705 178.722 69.5787 176 59.2C181.018 55.9953 186.475 53.5363 192.2 51.9V51.9ZM128 25.7C138 33.9 156 54 156 91C156 128 137.7 148.4 128 156.4C118.3 148.4 99.9999 128.4 99.9999 91C99.9999 53.6 118 33.9 128 25.7ZM63.7999 51.9C69.5248 53.5363 74.9817 55.9953 79.9999 59.2C77.2773 69.5787 75.9325 80.2705 75.9999 91C75.9862 99.6992 76.8574 108.377 78.5999 116.9C77.1838 114.874 75.8818 112.771 74.6999 110.6C70.8451 104.043 67.7581 97.0635 65.4999 89.8L65.1999 88.9C60.4999 73 61.7999 60.2 63.7999 51.9V51.9ZM25.1999 103.3C31.6587 102.297 38.2311 102.263 44.6999 103.2C47.2035 109.919 50.2816 116.41 53.8999 122.6C59.4122 132.135 66.0608 140.966 73.6999 148.9C69.7665 147.167 65.7665 145.167 61.6999 142.9C38.4999 129.4 28.9999 113.6 25.1999 103.3V103.3ZM194.3 142.9C190.2 145.2 186.2 147.2 182.4 148.9C189.993 140.952 196.607 132.122 202.1 122.6C205.718 116.41 208.796 109.919 211.3 103.2C217.769 102.263 224.341 102.297 230.8 103.3C227 113.6 217.5 129.4 194.3 142.9V142.9Z" fill="#1D6420"/>
</svg>
